<?xml version="1.0" encoding="utf-8"?>
<!-- Generator: Adobe Illustrator 28.1.0, SVG Export Plug-In . SVG Version: 6.00 Build 0)  -->
<svg version="1.1" id="Слой_1" xmlns="http://www.w3.org/2000/svg" xmlns:xlink="http://www.w3.org/1999/xlink" x="0px" y="0px"
	 viewBox="0 0 480 446.6" style="enable-background:new 0 0 480 446.6;" xml:space="preserve">
<style type="text/css">
	.st0{fill-rule:evenodd;clip-rule:evenodd;fill:#C0AE33;}
	.st1{fill-rule:evenodd;clip-rule:evenodd;fill:#FFFFFF;}
	.st2{fill-rule:evenodd;clip-rule:evenodd;fill:#E3361D;}
	.st3{fill-rule:evenodd;clip-rule:evenodd;fill:#251900;}
	.st4{fill-rule:evenodd;clip-rule:evenodd;fill:#008A3A;}
</style>
<path class="st0" d="M477.2,112c-4.3-36.6-20.6-82.7-42.4-112c-76,31.1-120.7,32.3-194.9,4.2C165.8,32.2,121.1,31.1,45.1,0
	C23.3,29.3,7.1,75.5,2.7,112c-1.6,14-2.5,24.7-2.7,34.2v8c0.2,12,1.7,23.3,4.1,39.2c9.5,61.8,58.8,121.8,91.2,143.8
	c68.4,46.3,90.4,14.7,144.7,109.4c54.4-94.7,76.3-63,144.7-109.4c32.5-22,81.8-82,91.2-143.8c2.5-16,3.9-27.2,4.2-39.2v-8.1
	C479.8,136.7,478.9,126.1,477.2,112L477.2,112z"/>
<path class="st1" d="M334.7,345.3c6.3-2.7,12.6-5.5,18.7-8.5l10.5-5.8c4.8-2.9,9.5-5.9,14.1-9.2c7.7-5.8,14.6-12.1,21.3-19
	c5.7-6.1,11.1-12.3,16.3-18.9c5.6-7.2,10.7-14.5,15.6-22.1c3.9-6.4,7.5-12.8,11-19.4c3.3-6.7,6.2-13.4,8.9-20.3
	c1.9-5.2,3.5-10.2,5-15.5c1.5-6.1,2.8-12.2,3.7-18.4c1.6-10.6,3-21.2,3.5-31.9c0.5-15.2-1.1-30.4-3-45.4
	c-1.7-11.6-4.2-22.9-7.5-34.1c-1.4-4.8-2.9-9.4-4.6-14.1c-5.3-14.5-11.5-29.1-19.7-42.3c-15.8,6.1-31.7,11.1-48.1,15
	c-6.3,1.4-12.5,2.5-18.8,3.5c-6.2,0.8-12.2,1.4-18.4,1.8c-6.2,0.2-12.2,0.2-18.4,0.1c-6.2-0.3-12.3-0.8-18.4-1.5
	c-6.4-0.9-12.5-2-18.8-3.2l-12.8-3c-11.8-3.2-23.4-6.8-34.8-11c-15.5,5.7-31.4,10.4-47.6,14.1c-6.3,1.3-12.5,2.3-18.8,3.2
	c-6.2,0.7-12.3,1.2-18.4,1.5C149,41,143,41,136.8,40.8c-6.2-0.4-12.3-1-18.4-1.8c-6.4-1-12.5-2.1-18.8-3.5
	c-16.4-3.9-32.4-8.9-48.1-15l-1.8,3c-12.7,22.1-21.4,46-27,70.9c-1.2,5.6-2.2,11.1-3,16.7c-1.8,13.7-3.2,27.6-3.1,41.4
	c0.2,14.8,2.3,29.5,4.9,44c1.1,5.3,2.4,10.4,3.9,15.5c1.7,5.2,3.5,10.3,5.5,15.5c3.7,8.6,7.7,16.8,12.2,25c2.8,4.8,5.6,9.5,8.7,14.2
	C58.7,277,66,286.6,74.2,296l6.5,7.1c7.5,7.7,15.2,14.7,24,20.9c5.5,3.6,11.1,7.1,16.8,10.4c6.3,3.4,12.7,6.5,19.4,9.4
	c13,5.4,26.3,9.7,39.1,15.5l8.9,4.6c4.7,2.8,9.1,5.7,13.5,9l9,7.8l9.1,9.3c7,8.2,13.5,16.6,19.5,25.6c7.1-10.9,15.2-21,24-30.5
	l9.1-8.5l9.1-7c4.4-2.9,8.8-5.6,13.4-8l8.8-4.2C314.4,352.8,324.6,349.2,334.7,345.3L334.7,345.3z"/>
<path class="st2" d="M307.7,39.3l-54.1,104.3l31.6-6.7l-50.8,89.4l-10-26.1L166,313l-18.6-10.2l11.8,40.3l40.3-11.8L181,321.1
	l41.5-72.7l8.4,32.9l108.1-173l-44.9,8.4l45.9-76c-5,0.1-10,0.1-15.1,0C319.1,40.4,313.4,39.9,307.7,39.3L307.7,39.3z"/>
<path class="st3" d="M420.1,120.6c-0.3-0.3-1-0.7-1.9-1.3s-1.7-1.2-2.5-2s-1.5-1.9-2.1-3.3c-1.3-3.3-2.7-6.4-4-9.2
	c-1.3-2.8-2.9-5.7-4.7-8.6c-1.8-2.9-3.9-5.5-6.1-7.8c5.4-2.5,9.4-5.4,12-8.9s3.9-7.3,3.9-11.7c-0.2-2.7-1.2-5.4-2.7-7.9
	c-1.6-2.5-4.1-4.6-7.5-6.2c-3.5-1.6-7.9-2.5-13.3-2.5H351c-3.4,0-5.1,1.2-5.1,3.5c0,0.9,0.2,1.5,0.6,1.9c0.4,0.3,1.1,0.7,2,1.2
	s1.6,1,2.1,1.6s0.7,1.5,0.7,2.8v52.2c0,1.1-0.2,2-0.7,2.5c-0.5,0.6-1.2,1.1-2.1,1.5s-1.6,0.9-2,1.4c-0.4,0.4-0.7,1.1-0.7,2.1
	c0,1.1,0.5,2,1.4,2.5c0.9,0.6,2,0.8,3.2,0.8h20.2c1.2,0,2.4-0.2,3.5-0.7s1.6-1.4,1.6-2.6c0-1-0.2-1.7-0.7-2.1
	c-0.5-0.4-1.2-0.9-2.1-1.3c-0.9-0.4-1.6-1-2.1-1.5c-0.5-0.6-0.7-1.5-0.7-2.8V94.4l10.2-1.5c0.6,0.7,1.1,1.4,1.8,2.2
	c1.5,2,3.2,4.5,5,7.6c2.6,4.2,4.3,8,5.4,11.4c0.2,0.7,0.3,1.5,0.3,2.3c0,0.7-0.2,1.2-0.5,1.6c-0.4,0.4-0.9,0.8-1.6,1.3
	s-1.3,0.9-1.6,1.3c-0.4,0.4-0.6,0.9-0.6,1.6c0.1,2.1,1.6,3.1,4.5,3.1h22.9c1.2,0,2.2-0.2,3.1-0.7s1.4-1.2,1.4-2.2
	C420.7,121.5,420.5,121,420.1,120.6L420.1,120.6z M390.5,79.8c-2.2,2.1-5,3.6-8.1,4.7c-0.5,0.2-0.9,0.3-1.4,0.4
	c-3.7,1.1-7.3,1.6-10.6,1.6V64.4c0-2.1,0.7-3.7,2.3-4.6c1.5-0.8,3.7-1.4,6.6-1.5c1.1,0,2.1,0.1,3.1,0.2c3.5,0.4,6.3,1.5,8.2,3.4
	c2.4,2.3,3.7,5.3,3.8,8.9C394.4,74.4,393.1,77.4,390.5,79.8z M370.7,219.2c1.5-2.7,3.3-6.3,5.6-10.8c2.2-4.6,4.4-9.5,6.6-14.7
	s4.1-9.9,5.6-14.1c1.4-4.2,2.1-7.2,2.1-9.1c0-1.4-0.4-2.5-1.1-3.2s-1.8-1.4-3.3-2.1c-1.4-0.6-2.4-1.2-3-1.6
	c-0.6-0.5-0.9-1.2-0.9-2.2c0-2.1,1.8-3.1,5.4-3.1h15.6c3.9,0,5.8,1,5.8,3.1c0,1.2-0.5,2.2-1.3,2.8c-0.8,0.7-1.8,1.4-2.8,2.1
	c-1,0.7-1.7,1.6-2,2.8c-0.7,2.5-2.1,6.4-4.2,11.8c-2.2,5.3-4.8,11.1-7.7,17.4c-2.9,6.3-5.7,12-8.3,17.1c-2.6,5.1-4.5,8.8-5.8,10.8
	c-1.3,2.1-2.4,3.7-3.3,4.7c-0.9,0.9-2,1.7-3.2,2.1c-1.3,0.4-3.1,0.7-5.3,0.7c-2.4,0-4.1-0.1-5.1-0.2s-2-0.6-2.8-1.3
	c-0.9-0.7-2-1.8-3.1-3.3c-3.6-4.5-6.8-9.3-9.7-14.6c-2.8-5.2-5.4-10.4-7.5-15.5s-4.1-10.2-5.7-15.1c-1.7-5-3.5-10-5.3-15.3
	c-0.5-1.3-1.1-2.3-2-2.9c-0.8-0.6-1.6-1.2-2.2-1.7c-0.7-0.5-1-1.2-1.1-2.1c0-2.3,2.5-3.5,7.5-3.5H348c4.6,0,6.9,1,6.9,3.1
	c0,0.8-0.3,1.5-0.8,2c-0.6,0.5-1.4,1-2.6,1.6s-2,1.1-2.6,1.6s-0.8,1.3-0.8,2.2c0.2,3.3,1.2,7.1,2.8,11.5c1.7,4.5,3.7,9,6,13.4
	c2.3,4.5,5,9.5,7.9,14.8C367.8,213.9,369.8,217.4,370.7,219.2L370.7,219.2z M263.2,278.6v42.9c0,1.8,0.3,3.1,0.9,3.9
	s1.5,1.5,2.7,2.1c1.2,0.6,2,1.1,2.5,1.5c0.5,0.4,0.8,1.2,0.8,2.2c0,1.1-0.4,1.9-1.3,2.4c-0.8,0.5-1.9,0.7-3,0.7h-13.7
	c-2.8,0-4.3-1.1-4.3-3.3c0-1.3,0.8-2.3,2.5-3.1s2.8-1.5,3.5-2.1c0.7-0.6,1-2,1-4.3v-48.3c0-2.2-0.3-3.6-1-4.2c-0.7-0.5-2-1.2-4-2.1
	c-2-0.9-2.9-2-2.9-3.3c0-2.2,1.4-3.3,4.3-3.3h20.9c1.8,0,3,0.4,3.7,1.2c0.7,0.8,1.5,2.5,2.4,5l14.1,37.1l14.5-35.9
	c1.2-2.9,2.1-4.9,2.8-5.9c0.7-1,2-1.5,3.6-1.5h19.5c2.2,0,3.3,1.1,3.3,3.1c0,1.2-0.3,2.1-0.8,2.5c-0.5,0.5-1.4,0.9-2.5,1.3
	c-1.1,0.4-2,0.8-2.6,1.4c-0.6,0.6-0.9,1.5-0.9,2.9V324c0,0.9,0.2,1.7,0.7,2.1c0.5,0.5,1.1,1,2,1.4c0.9,0.4,1.6,0.9,2.1,1.4
	c0.5,0.4,0.7,1.2,0.8,2.1c0,2.2-1.9,3.3-5.5,3.3h-19c-1,0-2-0.3-2.9-0.9c-0.9-0.6-1.4-1.4-1.4-2.4c0-0.9,0.2-1.6,0.6-2.1
	c0.5-0.4,1.1-0.9,1.9-1.3c0.9-0.5,1.5-0.9,2-1.4s0.7-1.4,0.7-2.4v-46.2l-17.3,43.3c-0.3,1.2-0.8,2.1-1.7,2.7c-0.8,0.6-2.4,1-4.6,1
	s-3.8-0.3-4.7-0.9c-0.9-0.6-1.6-1.6-2.2-2.8L263.2,278.6L263.2,278.6z"/>
<path class="st4" d="M176.2,181.9c0-3.2,3.3-6.8,7.1-8.6c3.9-1.8,8.5-5.7,9.9-9.3s-0.7-8.5-1-12c-0.5,4.7-2.8,10.9-7.2,14
	s-8.8,7.1-8.8,9.7v-8c0-3.3,2.7-4.9,4.8-6.7s4.7-4,6.4-5.8c1.6-1.9,3.1-4.3,3.2-7.7c0-3.4-3.3-8.7-3.1-10.2
	c-1.4,4.3-0.7,9.1-2.9,12.6c-2.1,3.5-8.3,6.3-8.3,9.1v-12.3c0-3,3.7-5.3,6.2-8c2.5-2.6,5.9-4.4,7.7-8.5c1.7-4.1-0.5-9.3-2.2-12.5
	c-0.8,3.8-0.6,10.2-4.3,12.7c-3.7,2.4-7.3,5.5-7.3,9.3v-9.4c0-4.4,4.4-9.1,8.8-12.9c4.4-3.8,5-7.4,4.8-10.5s-2-5.7-3.1-8.9
	c-1.2,4.1-0.7,8.5-2.1,11.3c-1.4,2.8-2.7,3.6-4.3,5.4s-4.1,4.7-4.1,6.4v-1.7c0-2.1,0-4.3,0.4-6.3c0.6-2.9,1.8-5.6,1.8-8.1
	c-0.1-4.9-3.3-8.5-3.2-13.4c0-4.9,1.7-9.2,2.9-14.2c-7.4,5.4-11.6,10.4-10.9,18.7c0.8,8.4,8.4,13,7.6,24.9v2.3
	c0-2.8-2.8-6.1-7.4-9.2c-0.8-0.5-1.5-1.2-2.1-1.9c-2.9-3.5-3.8-9-3.4-13.3c-2.1,2.5-4.7,7.6-2.9,13.1c1.6,4.7,3.9,5.7,6.3,7.8
	c0.4,0.3,0.8,0.7,1.2,1.1c2.9,2.9,8.4,7.6,8.4,11.2v8.6c0-1.6-1.4-2.5-3.4-4c-2.5-1.9-4.2-3.2-6.2-5.1l-0.7-0.7
	c-2.2-2.2-4.3-5.9-4.9-12.1c-1.2,1.4-3.8,7.4-0.9,13c1.2,2.3,3.2,4.1,6.4,6.6c0.4,0.3,0.7,0.6,1.2,0.9c3.6,2.9,8.1,7.7,8.4,10.6
	v10.8c0-2.7-3.1-3.8-4.9-5.9c-1.4-1.7-3.3-3.4-4.7-5.5c-0.3-0.4-0.6-0.8-0.8-1.3c-1.3-2.7-1.2-6.2-2-9.3c-1.3,2.8-3.5,6-3.1,9.6
	c0.4,3.5,2,5.9,5.7,9.3l0.1,0.1c3.8,3.5,9.5,8.1,9.5,12.7v8.7c0-2.1-2.2-6.7-4.6-8.9c-1.4-1.2-3.2-2.2-5-3.4c-1.4-1-2.8-2.1-3.9-3.4
	c-2.4-3-3.1-6.3-4.5-9.6c-2.5,7.9-1,15.9,7.1,18.3c0.4,0.1,0.9,0.3,1.4,0.5c3.4,1.7,7.2,5.9,9.5,10.3v5.1c0,3-0.7,5.8-1.9,8.5
	c-1.8-3.1-3.2-7.3-5.6-9.8c-0.7-0.7-1.4-1.3-2.1-1.9c-1.9-1.5-4-2.7-5.7-4.8c-2.3-2.8-2.8-6.5-4.6-10c0,3.4-1.5,6.4-1,9.7
	s3.4,8.1,7.8,9.2c1.3,0.3,2.4,0.9,3.5,1.8c2.6,2,4.8,5,7,7.1c-1.7,3.2-4.2,6.2-7,8.7c-6.4,5.7-14.9,9.4-21.1,9.9
	c-13.6,1.1-24.1-0.2-34,2.1c-9.9-2.3-20.4-1-34-2.1c-6.2-0.5-14.7-4.1-21.1-9.9c-2.8-2.5-5.3-5.5-7-8.7c2.2-2.1,4.4-5,7-7.1
	c1.1-0.8,2.3-1.5,3.5-1.8c4.4-1,7.3-5.9,7.8-9.2s-0.9-6.3-1-9.7c-1.7,3.5-2.2,7.2-4.6,10c-1.7,2.1-3.8,3.2-5.7,4.8
	c-0.7,0.6-1.4,1.2-2.1,1.9c-2.3,2.5-3.7,6.7-5.6,9.8c-1.2-2.7-1.9-5.5-1.9-8.5v-5.1c2.3-4.4,6.1-8.6,9.5-10.3
	c0.5-0.2,0.9-0.4,1.4-0.5c8.1-2.3,9.6-10.3,7.1-18.3c-1.4,3.4-2.1,6.6-4.5,9.6c-1.1,1.3-2.5,2.4-4,3.4c-1.8,1.2-3.6,2.2-4.9,3.4
	c-2.4,2.1-4.6,6.7-4.6,8.9v-8.7c0-4.6,5.7-9.2,9.5-12.7c0,0,0.1,0,0.1-0.1c3.8-3.5,5.3-5.8,5.7-9.3c0.4-3.6-1.8-6.8-3.1-9.6
	c-0.7,3.2-0.7,6.6-2,9.3c-0.2,0.5-0.5,0.9-0.8,1.3c-1.4,2.1-3.3,3.7-4.7,5.5c-1.7,2.1-4.9,3.2-4.9,5.9v-10.8
	c0.2-2.9,4.7-7.7,8.4-10.6c0.4-0.3,0.7-0.6,1.1-0.9c3.2-2.5,5.2-4.3,6.4-6.6c2.9-5.6,0.3-11.7-0.9-13c-0.5,6.2-2.6,9.9-4.9,12.1
	l-0.7,0.7c-2,1.9-3.6,3.2-6.1,5.1c-2,1.5-3.4,2.3-3.4,4v-8.6c0-3.6,5.5-8.3,8.4-11.2c0.4-0.4,0.8-0.8,1.2-1.1
	c2.4-2.1,4.7-3.1,6.3-7.8c1.9-5.5-0.7-10.6-2.8-13.1c0.4,4.2-0.5,9.8-3.5,13.3c-0.6,0.7-1.3,1.4-2.1,1.9c-4.6,3.1-7.4,6.4-7.4,9.2
	V121c-0.7-11.9,6.8-16.5,7.6-24.9c0.7-8.3-3.5-13.3-10.9-18.7c1.2,5,2.8,9.4,2.9,14.2c0,4.9-3.2,8.5-3.3,13.4c0,2.5,1.3,5.2,1.8,8.1
	c0.4,2.1,0.4,4.3,0.4,6.3v1.7c0-1.7-2.4-4.6-4.1-6.4c-1.6-1.8-2.9-2.6-4.3-5.4c-1.4-2.7-0.9-7.2-2.1-11.3c-1.2,3.1-3,5.7-3.1,8.9
	c-0.1,3.1,0.4,6.7,4.8,10.5s8.7,8.5,8.8,12.9v9.4c0-3.8-3.5-6.9-7.3-9.3c-3.7-2.4-3.5-8.8-4.3-12.7c-1.7,3.2-4,8.4-2.2,12.5
	c1.7,4.1,5.2,5.9,7.7,8.5c2.5,2.7,6.2,5,6.2,8V159c0-2.8-6.2-5.6-8.3-9.1s-1.5-8.2-2.8-12.6c0.1,1.5-3.2,6.8-3.1,10.2
	c0,3.4,1.5,5.8,3.2,7.7c1.6,1.9,4.3,4.1,6.4,5.8c2.1,1.8,4.8,3.4,4.8,6.7v8c0-2.6-4.3-6.6-8.8-9.7c-4.4-3.1-6.8-9.3-7.2-14
	c-0.3,3.5-2.4,8.4-1,12s6,7.5,9.9,9.3s7.1,5.4,7.1,8.6v7.1c0,0.7,0,1.4,0.1,2.1l-0.1-0.2c0-2.4-6.1-5.7-8.8-6.9s-4.6-5.6-7.3-10.7
	c-0.2,3.5-1.8,8,0.6,11.5s5.1,6,8.1,6.8c2.4,0.6,5.9,1.8,8.9,3.8c1.8,4.5,5.4,8.7,9.6,12.2c6.8,5.7,15.1,9.6,20.5,10.1
	c14,1.3,22.8,0.8,29.5,1.6c-6,2.3-11.8,6.2-18.2,13.3l5.8,5.3c6.9-11,11.5-15.5,17.5-17.5c6,2,10.6,6.5,17.5,17.5l5.8-5.3
	c-6.4-7-12.2-11-18.2-13.3c6.7-0.8,15.4-0.3,29.4-1.6c5.4-0.5,13.7-4.4,20.5-10.1c4.2-3.5,7.8-7.7,9.6-12.2c2.9-2.1,6.4-3.3,8.8-3.8
	c3-0.7,5.7-3.2,8.1-6.8c2.4-3.5,0.8-7.9,0.6-11.5c-2.7,5.1-4.6,9.5-7.3,10.7s-8.8,4.4-8.8,6.9l-0.1,0.2c0.1-0.7,0.1-1.4,0.1-2.1
	V181.9L176.2,181.9z"/>
<path class="st0" d="M119.3,77.7c-0.8,0-1.7-0.2-2.7-0.2c-4.8-0.3-7-6.1-3.6-9.5c1.1-1.1,3.2-0.3,3.2,1.3c0,1-0.8,1.9-1.9,1.9h0.5
	c2,0,3.6-1.6,3.6-3.6c0-1.7-1.3-3.2-3-3.5c-3-0.5-5.2-3-5.2-6.1c0,3-2.2,5.6-5.2,6.1c-1.7,0.3-3,1.8-3,3.5c0,2,1.6,3.6,3.5,3.6h0.6
	c-1,0-1.9-0.8-1.9-1.9c0-1,0.8-1.9,1.9-1.9c0.5,0,0.9,0.2,1.3,0.6c1,1.1,1.6,2.5,1.6,3.9c0,2.9-2.2,5.4-5.2,5.6
	c-0.7,0-1.7,0.1-2.6,0.2c-0.7,0-1.1-0.4-1.1-1c0-0.4,0.3-0.7,0.7-0.9c0.6-0.1,1.1-0.7,1.1-1.4c0-0.4-0.2-0.8-0.5-1.1l-3.6-2.8
	L95,74.1c-0.2,0.2-0.3,0.5-0.3,0.8c0,0.8,0.6,1.4,1.4,1.4c0.6,0,1,0.4,1,0.9s-0.4,0.8-0.8,0.9c-0.7,0.1-1.7,0.2-2.5,0.4
	c-3.6,0.6-6.7-2-6.7-5.5c0-1,0.3-2,0.8-2.9c1-1.5,3.5-0.9,3.5,1c0,0.8-0.7,1.6-1.5,1.8c1.8-0.1,3.3-1.6,3.3-3.5c0-2-1.6-3.5-3.6-3.5
	h-0.2c-3,0.2-5.8-1.8-6.5-4.8C83,61.6,83,62,83,62.5c0,2.5-1.5,4.8-3.8,5.7C77.8,68.7,77,70,77,71.5c0,2,1.5,3.5,3.5,3.5
	c0.5,0,1,0,1.4-0.2c-1.2,0.3-2.3-0.6-2.3-1.8c0-1,0.8-1.9,1.8-1.9c0.4,0,0.7,0.1,1,0.2c1.6,1,2.7,2.8,2.7,4.8c0,2.4-1.6,4.6-3.9,5.3
	c-0.8,0.2-1.7,0.6-2.6,0.8c-0.7,0.2-1.3-0.2-1.3-0.9c0-0.4,0.2-0.7,0.6-0.8c0.5-0.2,0.7-0.7,0.7-1.3c0-0.5-0.3-1-0.7-1.3l-4.2-2
	l-1.9,4.2c-0.1,0.1-0.1,0.3-0.1,0.6c0,0.8,0.6,1.4,1.4,1.4c0.1,0,0.3,0,0.4-0.1c0.6-0.1,1.1,0.3,1.1,0.9c0,0.4-0.2,0.7-0.6,0.9
	l-2.4,0.9c-3.8,1.6-7.9-1.1-7.9-5c0-0.6,0.1-1.2,0.3-1.8c0.7-2,3.6-1.5,3.6,0.6c0,0.7-0.4,1.4-1.1,1.7c1.5-0.5,2.5-1.9,2.5-3.4
	c0-2-1.6-3.5-3.6-3.5c-0.3,0-0.7,0-1.1,0.1c-2.9,1-6.1-0.3-7.4-3.1l12.6,25.2v91.7c0,6.6,5.4,12,12,12h21.2c4.1,0,7.5,3.4,7.5,7.4
	c0-4,3.3-7.4,7.4-7.4h21.3c6.6,0,12-5.4,12-12V95.5l12.6-25.2c-1.4,2.8-4.4,4.1-7.4,3.1c-0.3,0-0.7-0.1-1.1-0.1
	c-2,0-3.5,1.5-3.5,3.5c0,1.5,1,2.9,2.4,3.4c-1.8-0.8-1.1-3.5,0.8-3.5c0.8,0,1.5,0.5,1.7,1.2c0.2,0.6,0.3,1.2,0.3,1.8
	c0,3-2.5,5.5-5.5,5.5c-0.8,0-1.5-0.1-2.1-0.4c-0.8-0.3-1.6-0.7-2.5-0.9c-1-0.4-0.7-1.9,0.3-1.9h0.2c0.1,0.1,0.2,0.1,0.3,0.1
	c0.8,0,1.4-0.6,1.4-1.4c0-0.2-0.1-0.4-0.1-0.6l-2-4.2l-4.1,2c-0.5,0.2-0.8,0.7-0.8,1.3c0,0.6,0.4,1,0.8,1.3c0.3,0.2,0.5,0.5,0.5,0.8
	c0,0.5-0.4,0.9-0.9,0.9h-0.3c-0.8-0.2-1.6-0.6-2.5-0.8c-4.6-1.4-5.4-7.5-1.4-10.1c1.3-0.7,2.8,0.1,2.8,1.6c0,1-0.8,1.8-1.9,1.8h-0.4
	c0.4,0.2,0.8,0.2,1.3,0.2c2,0,3.6-1.5,3.6-3.5c0-1.5-0.9-2.8-2.2-3.3c-2.9-1.2-4.4-4.2-3.7-7.1c-0.7,2.9-3.5,5-6.5,4.8h-0.3
	c-2,0-3.5,1.5-3.5,3.5c0,1.9,1.4,3.5,3.3,3.5c-2.2-0.5-1.8-3.6,0.4-3.6c0.7,0,1.3,0.3,1.6,0.8c0.6,0.9,0.8,1.9,0.8,2.9
	c0,3.1-2.5,5.6-5.6,5.6c-0.3,0-0.6,0-0.9-0.1c-0.9-0.1-1.7-0.2-2.6-0.3c-1.2-0.2-1.1-1.9,0-1.9c0.7,0,1.4-0.6,1.4-1.4
	c0-0.3-0.1-0.6-0.3-0.8l-2.8-3.6l-3.5,2.8c-0.3,0.2-0.6,0.7-0.6,1.1c0,0.7,0.5,1.3,1.1,1.4c0.4,0.1,0.7,0.5,0.7,0.9
	C120.3,77.3,119.9,77.7,119.3,77.7L119.3,77.7z"/>
<path class="st3" d="M148.1,95.8h-76C96.3,84.6,124.1,84.6,148.1,95.8z"/>
<path class="st2" d="M148.1,98.5h-76v89c0,5.1,4.2,9.2,9.3,9.2h21.2c2.8,0,5.6,1.2,7.5,3.2c1.9-2,4.6-3.2,7.4-3.2h21.3
	c5.1,0,9.2-4.1,9.2-9.2v-89H148.1z"/>
<path class="st3" d="M110.7,145.1l13.4-19.9c4.9,2.2,10.6,0,12.8-4.9l4.3-10.1l-9.1,9.2c-0.2,0.3-0.6,0.4-0.9,0.4
	c-0.7,0-1.3-0.6-1.3-1.3c0-0.2,0-0.4,0.1-0.5l5.1-11.9l-9.1,9.2c-0.2,0.3-0.6,0.4-0.9,0.4c-0.7,0-1.3-0.6-1.3-1.3
	c0-0.2,0-0.4,0.1-0.6l5.1-11.9l-7.7,7.8c-3.8,3.8-3.6,10,0.3,13.7l-12.8,18.9l-15-22.2l12.3-8.3l-2.7-4.1l-0.7,0.4l-6.4-4.5l1.8,7.7
	l-0.7,0.5l-6.4-4.5l1.8,7.7l-0.7,0.4l-6.4-4.5l1.8,7.7l-0.7,0.4l-6.4-4.5l1.8,7.7l-0.7,0.5l-6.4-4.5l1.8,7.7l-0.7,0.4l2.8,4.1
	l12.3-8.3l15.6,23.2l-27.2,40.3c-0.1,0.2-0.2,0.5-0.2,0.8c0,1.5,1.9,2.1,2.7,0.8l26.6-39.3l26.5,39.3c0.3,0.4,0.7,0.7,1.3,0.7
	c0.8,0,1.4-0.7,1.4-1.5c0-0.3-0.1-0.6-0.2-0.8L110.7,145.1L110.7,145.1z"/>
</svg>
