<svg height="323" viewBox="0 0 443 323" width="443" xmlns="http://www.w3.org/2000/svg"><path d="m94.9464504 322.280121c-29.9889597-3.21641-51.9565097-14.9557-71.4837897-38.20038-10.47533-12.4695-18.75826-30.8356-21.89606-48.55104-2.24058-12.64986-2.09091-23.3347.53368-38.1 2.17623-12.243 7.90699-26.49835 14.96606-37.22836 2.82782-4.29837 4.61991-4.57333 6.17543-.9475 3.24874 7.57264 11.53329 18.23493 18.65932 24.01473 1.16219.94263 2.2704 1.86536 2.4627 2.05052.7253.69838.73861.28696.0383-1.1847-4.37576-9.19577-2.48807-21.57191 4.44971-29.17346 14.37584-15.75122 40.8384897-3.27451 35.41256 16.69643-3.65011 13.43481-21.56442 15.94851-27.31795 3.8332-4.85557-10.22446 8.19274-21.14018 15.84799-13.25782 3.32672 3.42541.37736 7.43539-3.07044 4.1746-5.5885-5.28537-11.90195 3.62466-6.50725 9.18353 8.02211 8.26623 20.56111-3.83756 15.21549-14.68739-8.25466-16.75422-33.63513-5.03879-31.12567 14.36736 2.82512 21.84709 29.81232 29.05566 50.4968397 13.48826 18.5875906-13.98924 23.9665706-31.93664 14.0736506-46.95805-1.23491-1.87509-.9556-2.18999-4.57632 5.15938-4.568961 9.27409.40232 9.63326-35.6376003-2.57471-10.40474-3.52445-22.25146-7.53286-26.32604-8.90759-4.07459-1.37472-9.73006-3.28642-12.56771-4.24822-2.83766-.9618-6.48164-2.19293-8.09775-2.73586-6.01616-2.02112-6.06402-2.34341-1.70501-11.48167 17.21476-36.0892225 61.42488-55.4945435 104.9204603-46.0531495 9.77459 2.121728 16.22703 4.33552 19.65675 6.744123 11.63145 8.168444 11.60856 25.3292665-.0444 33.2880965-1.122.76631-1.26101.96232-1.12589 1.5875 2.86663 13.26426.14886 20.54332-8.29103 22.20607-6.54389 1.28921-10.66334-1.80646-15.44624-11.60742-1.90109-3.89564-2.07389-4.05065-2.68986-2.41287-.26035.6923-1.63084 3.58044-3.04552 6.41809-4.18162 8.38785-3.99038 7.61012-2.35399 9.57298 13.52788 16.22677 8.03907 40.42191-12.642721 55.73012-17.6436993 13.05949-35.9635493 13.34706-54.8398793.86085-3.78269-2.50216-3.63199-2.53476-5.42122 1.17251-4.47566 9.27357-.17095 20.09475 10.2064 25.65683 4.32686 2.31913 4.421 2.65676 2.07462 7.44038-5.89774 12.02383 1.18696 22.85973 13.92717 21.30134 3.98477-.48742 4.44669.0676 4.49207 5.39728.11926 14.00813 13.28545 21.70213 23.7275697 13.86584l1.78594-1.34028v-10.69453c0-10.60456-.005-10.69457-.54231-10.69457-1.47347 0-2.89839-1.52304-2.89629-3.0957.002-1.13903.0689-1.23399 8.2787696-11.66469.18257-.23196.15971-.91487-.0717-2.14124-.37246-1.97395-.22736-2.79506 3.06808-17.36191 1.331511-5.88571 1.683471-8.37677 1.686431-11.93632.002-2.6696.48661-3.58022 2.092-3.93282 2.27702-.50012 2.99136.75092 3.2256 5.64903.18977 3.96842.5852 6.34626 2.35955 14.18886 1.66317 7.35129 2.40966 11.68207 2.35227 13.64697-.0628 2.15043-.0593 2.15662 4.02625 7.2213 4.41314 5.47074 4.651 5.93984 3.82315 7.54071-.52795 1.02097-1.07739 1.41877-2.21412 1.60311-.97832.15867-.97832.15867-.97832 2.27121v2.11253l9.85573.0694c10.63151.0748 10.62064.0764 8.28709-1.20648-4.38734-2.41194-6.21387-4.51995-6.22728-7.18687-.008-1.55541.11618-1.85426 2.96794-7.15415 2.85186-5.30005 3.84839-9.3327 2.98071-12.06193-1.02317-3.21829-3.38844-8.90042-4.3952-10.55872-7.05583-11.62189-1.48109-31.01529 14.71715-51.1981 5.89659-7.34705 7.75423-10.50712 8.06014-13.71117.68297-7.15329 2.36646-11.53515 6.80349-17.7085 2.38438-3.31744 2.48388-3.82268 2.10643-10.69572-.29363-5.34726-.10075-10.48669.48945-13.04113.36642-1.58596.34055-1.66113-.68918-2.00097-3.89012-1.28385-5.15927-7.6604165-2.14887-10.7964765 1.93032-2.01089 4.11649-2.51819 6.57413-1.52551l1.66891.67411 1.19761-1.05236c7.09745-6.236726 12.869413-7.999504 19.586126-5.981665 3.842459 1.154353 4.724189 1.061347 12.123839-1.278829 6.32537-2.00043 7.46043-1.46385 8.52692 4.030964 1.23235 6.34947-.82826 11.14249-7.12375 16.5700365-3.78823 3.26597-4.15073 4.23998-2.96061 7.95524 1.15742 3.61329 1.86902 7.5381 1.86902 10.30878 0 2.38098.0183 2.45283.82137 3.21255 1.14414 1.08247 2.91256 3.42623 3.83024 5.07632 1.45661 2.61919 7.45474 1.43595 10.94737-2.15957 3.72589-3.83564 4.6948-6.31379 4.9226-12.59068.21426-5.90362 2.00668-9.40277 5.45912-10.65718 1.28979-.46863.62191-5.3135965-1.29532-9.3966065-1.28714-2.74113-5.39808-6.29275-9.87538-8.53175-2.90439-1.452417-3.46057-2.378535-2.5204-4.196644 1.03492-2.001324 2.56749-2.069562 5.79811-.258159 8.30516 4.656703 12.39858 10.163473 14.03818 18.8851295.21886 1.16417.71191 3.66448 1.09569 5.55625.59629 2.9394.71819 4.34897.83831 9.69315.20137 8.96114.055 9.53524-2.55511 10.02017-3.65117.67836-6.48822 3.01262-8.89418 7.31795-2.85919 5.11633-4.8087 6.26074-10.89594 6.39612-4.80105.10678-5.2492.53394-2.51933 2.4014 4.79602 3.28086 11.53847.43855 16.26581-6.85692 2.6896-4.15076 4.82137-5.68756 7.87636-5.67808 7.54702.0234 8.88251 10.19484 2.37826 18.1135-1.94765 2.37119-1.90858 2.03371-2.52662 21.82813-.54395 17.42234-2.16344 34.37629-3.72782 39.02545-.78237 2.32517-2.96481 2.68706-4.41547.73217-.59679-.80424-.62526-.39938.61839-8.80137.90389-6.10669 1.63726-15.89892 2.00136-26.72292.46445-13.80673.55247-16.94229.47826-17.03526-.0448-.056-1.84132 1.67471-3.9923 3.84615-5.02269 5.07036-7.13851 6.10979-17.90679 8.79692-4.87757 1.21716-4.72188 1.10678-5.44848 3.86302-2.76588 10.49174-9.84015 22.0238-18.897312 30.80535-1.406525 1.36373-1.976413 2.093-1.860843 2.38125 4.681619 11.67473 3.729252 20.01891-3.35417 29.38736-4.69234 6.20601-4.72491 6.35-1.43553 6.35 5.318419 0 7.754068 1.39467 8.235609 4.71575.317791 2.19167.269452 2.16342 3.700648 2.16342h3.041098l-.0738-3.50044c-.0738-3.50044-.0738-3.50044-.787139-3.55494-1.783715-.13624-2.825671-1.71826-2.264278-3.43781.436774-1.33782 5.455837-4.68099 14.420827-9.60565l2.97656-1.6351v-2.50761c0-2.75498.31729-3.72446 1.41036-4.30946.87839-.47011.89278-.5582.95179-5.82539.0583-5.20226.0524-5.17156 1.19578-6.23714.81439-.75897.87794-.96769 1.44994-4.7625.32901-2.18282.88011-5.51657 1.22465-7.40834 1.53623-8.43517 1.70498-9.99187 1.70498-15.72815 0-6.59264.24326-7.2606 2.5876-7.10525 2.18456.14477 2.27909.45465 2.47155 8.10119.16198 6.43581.40505 8.73033 1.57419 14.86007.60801 3.18779 1.56874 9.75312 1.56874 10.72038 0 .47584.28887.83686 1.05833 1.3226.58209.36745 1.06075.81543 1.06368.9955.13396 8.1961.31896 10.1139 1.05254 10.91074 1.15859 1.25855 1.32337 1.79922 1.32337 4.34213 0 2.19636.0488 2.42256.59531 2.75842.32742.20124 2.97656 1.71034 5.88698 3.35359 10.58299 5.97527 12.18748 7.46067 10.85083 10.04546-.40127.77597-.89149 1.0399-2.18676 1.17737-.72657.0771-.72657.0771-.80039 3.55373l-.0738 3.4766 16.7426-.014c15.83208-.0132 16.70687-.0383 16.08603-.46302-16.38657-11.21005-20.76516-23.29542-22.88149-63.15538-.22407-4.2201-.46326-8.08963-.53152-8.59896-1.94789-14.53029.28546-25.26847 6.73576-32.3861 3.07113-3.38886 2.41949-7.89538-1.18705-8.20942-6.57489-.57252-6.7868-.88553-6.76645-9.9957.0188-8.35091.68069-15.39111 2.41075-25.63557 2.7024-16.0023175 15.89018-37.8418455 19.9426-33.0258155 1.21322 1.441836 1.02367 2.050399-1.73004 5.553887-10.20082 12.978472-15.29495 30.2772985-15.30871 51.9859085-.004 6.3324-.22278 5.93689 3.29071 5.94928 3.59798.0127 5.19403 1.17687 5.54648 4.0457 1.07826 8.77669.98817 9.36994-1.88857 12.43609-5.45642 5.8157-6.60746 9.22192-6.31325 18.68235.65236 20.97593 2.1808 39.478 4.16208 50.38275 2.57027 14.14661 9.27077 23.73723 20.17806 28.88152 7.28281 3.43485 10.49078 3.79997 31.68721 3.60662l4.41087-.0403.0871-1.99879c.0899-2.06425-.0676-2.49912-.90506-2.49912-.90284 0-1.97538-.76232-2.43486-1.73056-.74049-1.56049-.84145-1.3802 4.88217-8.71839l3.04271-3.90102.0172-2.81302c.0177-2.89222.0786-3.20681 3.71332-19.21722.56132-2.47251.74692-4.08239.83892-7.27604.12962-4.4999.3443-5.27889 1.63949-5.94865 2.5522-1.31979 3.57489-.0599 3.78857 4.66742.18102 4.00488.66677 6.65638 3.16724 17.28852 1.4373 6.11153 1.62365 7.22154 1.66992 9.94741.0634 3.73856.11568 3.83566 6.03565 11.21926 2.98355 3.72118 2.79294 6.22622-.49752 6.53909l-.79375.0755-.0726 37.83542c-.0816 42.51952.11221 38.82003-2.05751 39.2802-2.26676.48072-30.94413.1571-31.73039-.35807-1.43478-.94009-1.42566-.81994-1.40846-18.56253.0177-18.26702.0359-18.06781-1.90402-20.88729-4.06215-5.90415-13.45732-4.26754-15.6156 2.72021-.50022 1.61946-.52499 2.49179-.52499 18.48599 0 21.14415.96232 18.87106-7.98668 18.86542-9.23306-.006-8.25289 2.22655-8.41748-19.17102-.13227-17.19331-.13245-17.19831-.74184-18.70646-3.01064-7.45117-12.98782-7.6966-16.35707-.40238-.76047 1.64634-.76047 1.64634-.89276 18.98856-.1451 19.02182-.0999 18.52279-1.71289 18.92761-1.53246.38462-67.233769.25717-67.961849-.13182-1.538736-.82214-1.478336-.13742-1.605486-18.19577-.0712-10.10475-.2236-17.03541-.38892-17.6808-1.90642-7.44305-9.65456-9.7246-14.97081-4.40838-2.77019 2.77018-2.78921 2.92499-2.78921 22.68913 0 20.40321 1.06775 17.97031-7.88681 17.97031-9.2879 0-8.30423 2.13548-8.26793-17.94917.0316-17.50677-.006-18.03458-1.50318-20.89195-3.17233-6.05573-11.10713-6.38416-15.05921-.62331-1.86079 2.7124-1.81099 2.14376-1.81099 20.67901 0 17.50346-.003 17.53995-1.12361 18.2747-.95149.62343-31.379171.80039-36.8441006.21423zm21.6958306-40.80536c.0728-19.69559.0641-35.85234-.0193-35.90385-.23641-.14608-12.946831-.20696-13.091081-.0627-.0862.0862-.19673 66.40026-.11977 71.84752.00053.0389 2.947791.0389 6.549431 0l6.54844-.0708zm10.84866 20.19866c.13306-15.60931.13306-15.60931.86368-17.76762 4.25146-12.55911 20.57514-13.91563 26.35533-2.19014 1.84671 3.74616 1.87465 4.05347 1.87981 20.68647l.005 14.75053h2.76487 2.76486l.0939-16.07344c.10308-17.65536.0452-17.00178 1.77416-20.02372 6.37876-11.14893 21.5881-9.51217 26.148641 2.81403.714084 1.93.714084 1.93.796978 17.58931l.08289 15.65931 2.653797.0834c1.459574.0459 2.702879.0338 2.762889-.0269.06-.0606.10911-11.58034.10911-25.59934v-25.48911l-37.240095.067-37.24011.0671v25.45401 25.454l.92604.0783c.50933.043 1.69995.0778 2.64584.077208h1.71979zm80.171925.33184c.003-12.39279.0776-15.72297.38015-16.99948 2.9617-12.49627 17.89033-15.35454 24.57559-4.70527 1.96709 3.13349 1.86161 2.06499 2.01877 20.44798l.14136 16.53646 2.8452.0751 2.84517.0751-.067-37.38134-.0671-37.38136-19.03545-.0644c-14.94374-.0506-19.08037.006-19.24439.26459-.24511.38597-.29564 72.49789-.0517 73.71781.16537.82682.16537.82682 2.91042.82682h2.74505zm1.26672-35.91806c-2.4343-.43767-2.59355-1.00624-2.59355-9.25954 0-10.28423-1.66212-9.26042 15.03397-9.26042 16.50132 0 14.99798-1.0519 14.69403 10.28163-.17436 6.50076-.33047 7.3928-1.39325 7.96158-.56956.30482-24.17355.55858-25.7412.27675zm20.3396 51.04521c.58455-.58454.14788-31.01429-.46873-32.66228-2.15652-5.76379-9.27349-7.23387-13.32267-2.75188-2.45706 2.71966-2.38408 2.13501-2.48259 19.89013l-.0877 15.80886h8.03847c5.38699 0 8.13239-.094 8.32326-.28483zm21.8938.0525c.079-.12779.15526-6.76553.16949-14.75052.0314-17.60273.14187-18.56216 2.54672-22.12044 6.7759-10.02575 20.80194-8.54704 25.35552 2.67314.91626 2.25772.96092 2.96228 1.04294 16.45978.0419 6.90055.091 13.7073.10898 15.12613l.0327 2.57969h2.63591 2.63591l.0781-15.67657c.0883-17.73086.0369-17.26678 2.30627-20.77799 6.49978-10.05644 20.18387-9.30259 25.18638 1.38747 1.47103 3.14357 1.53871 3.9931 1.61533 20.28024l.0702 14.91914 1.98437-.0502c1.09141-.0276 2.3118-.0574 2.71198-.0661.72761-.0159.72761-.0159.72761-25.54822v-25.53239h-37.17396-37.17395v25.522 25.52197l2.3151.0882c1.27331.0485 2.39736.11269 2.49793.14261.10054.0299.24744-.0502.32642-.17796zm88.05653-35.82032c.0615-31.7504.0236-35.93097-.32724-36.01172-.33697-.0776-12.45279-.0132-13.0326.0693-.23471.0334-.2649 70.98001-.0305 71.59093.13882.36185.97602.40439 6.7396.34253l6.58106-.0706zm-241.7811656 35.62749c.31395-.12046.4175-.53363.4145343-1.65364-.0060643-2.27179-.1930543-2.40411-2.0256643-1.4346-1.86353.98586-4.83299 1.92593-6.08363 1.92593-1.82756 0-.55708.47654 2.09095.7843 1.49327.17354 2.95316.34952 3.2442.39106 1.0482.14954 1.94886.14457 2.35961-.013zm-22.2165897-3.75523c-.13824-.11641-.84666-.68175-1.57427-1.25627-2.6173-2.06666-6.25328-6.61426-6.88848-8.6156-.13961-.43987-.3171-.5181-.87662-.3865-12.35442 2.90618-23.33461-4.46246-24.21881-16.25288-.0709-.94588-.13662-1.79371-.14597-1.88404-.009-.0903-.84414-.24575-1.85511-.34536-4.02307-.39643-10.37972-3.20601-12.91458-5.7081-2.89294-2.85557.41131 1.53982 5.37036 7.14375 9.56605 10.81006 23.01507 19.78893 38.88338 25.95944 3.87981 1.5087 4.73921 1.78271 4.2201 1.34556zm17.4197897-3.4726c1.1334-.47932 2.77051-1.39404 3.63802-2.03266l1.5773-1.16115v-16.53699c0-9.09537-.0527-16.53701-.11717-16.53701-.0644 0-.51093.23103-.99219.51345-11.9577497 7.01648-28.5024997-2.44068-29.5326897-16.88121l-.18191-2.54995-2.51354-.20437c-15.22515-1.23782-22.59087-15.37279-15.14844-29.07016.0509-.0937-1.07961-.93837-2.51227-1.87706-11.91644-7.80775-15.70213-22.87358-8.45712-33.65665l1.05676-1.57282-1.55853-1.31621c-2.96306-2.50236-8.99108-8.77684-10.9013-11.347-2.21688-2.98275-2.0229-2.90455-3.67186-1.48024-6.84956 5.91636-8.18874 15.72347-3.54749 25.97886 1.295 2.86146 1.08487 3.46603-1.98881 5.72209-9.57947 7.03124-9.55345 21.27321.0501 27.41652 2.72139 1.74085 2.83774 2.62789.7927 6.04356-4.34898 7.26379-2.82623 14.69609 3.63806 17.75679 2.26233 1.07117 2.31353 1.17454 2.57352 5.19552.68445 10.5859 6.78789 16.72757 17.28741 17.39567 3.81133.24251 4.39561.75697 4.39561 3.8704 0 10.74531 8.70538 17.53113 18.34082 14.2966 3.71416-1.24679 4.76242-.90466 5.85556 1.91114 3.49001 8.98975 13.57895 13.64948 21.9174697 10.12288zm-6.7477297-7.55073c-2.1499-.73909-2.97566-2.90738-1.82553-4.79346 2.1384297-3.50679 7.6404697-.50022 5.8506497 3.19704-.79126 1.63454-2.24133 2.20967-4.0251197 1.59642zm-24.84227-13.50272c-1.47357-.80092-1.99679-2.75291-1.16768-4.35623 1.63579-3.16326 6.21854-2.13802 6.2220125 1.39199.0029975 2.70386-2.6601725 4.26554-5.0543325 2.96424zm-18.42723-17.25327c-3.3843-.65156-3.1241-5.92923.32421-6.57614 3.75891-.70517 5.39593 4.90548 1.86208 6.38202-.92115.38486-1.1089.40155-2.18629.19412zm-14.81365-23.00695c-.84109-.17838-2.1112-1.53225-2.31716-2.46996-.59846-2.72479 2.25362-5.01002 4.76528-3.81818 3.7454 1.77731 1.65078 7.15748-2.44812 6.28814zm-6.58639-24.40982c-1.25896-.76766-1.90206-2.63978-1.40088-4.07802.98819-2.83586 4.87255-3.06713 6.15412-.36641 1.49497 3.15043-1.809 6.23973-4.75324 4.44443zm3.31984-27.87674c-2.91967-1.96757-1.27211-6.6137 2.19359-6.18594 4.29698.53035 4.00351 6.78919-.31834 6.78919-.58207 0-1.34361-.24498-1.87525-.60325zm-3.40662 74.84173c-.77753-1.8139-1.25464-4.15369-1.46302-7.17475-.18306-2.65399-.18306-2.65399-1.28315-3.27615-2.3087-1.30572-3.71051-2.57086-4.97369-4.48871-.70717-1.07371-1.28577-1.87135-1.28577-1.77258 0 .41463 3.32457 7.37886 4.74631 9.94246.84739 1.52797 1.92462 3.55203 2.39386 4.49792 1.73543 3.49829 3.10737 5.16908 1.86546 2.27181zm175.2766553-13.25202v-2.64584l-37.240105-.0671-37.2401-.067v2.60265c0 1.43145.0798 2.68243.1773 2.77995.0975.0975 16.85557.14714 37.2401.11025l37.062805-.0671zm124.11779.26458c.0156-1.30969-.0272-2.5305-.0948-2.7129-.0979-.26408-7.70345-.31798-37.33446-.26459l-37.21144.0671-.0771 2.36033c-.0424 1.29815-.019 2.51192.0522 2.69726.104.27104 7.41862.32692 37.38334.28554l37.25405-.0515zm-309.3931853-9.61371c-.16601-4.09329.24666-6.31619 1.74085-9.37715l1.00436-2.05751-2.27854-2.30812c-2.52892-2.56172-4.3627-5.78898-5.67137-9.98101-.66078-2.11667-.66078-2.11667-.538-.52917.0675.87313.18941 2.48047.27083 3.57188.33448 4.48318 2.3136 13.87872 4.05998 19.27402.57109 1.76432 1.11718 3.56677 1.21353 4.00545.3031 1.38004.34008.89569.19836-2.59839zm147.0988303-4.67591c.57226-3.34282.91448-8.59684.55994-8.59684-.1423 0-.80098.86321-1.46371 1.91823-2.69256 4.28628-3.00582 6.14683-1.38281 8.21304 1.44401 1.83835 1.7436 1.63732 2.28658-1.53443zm-43.11648-7.07368-2.35783-2.97837-2.39635-.13229c-1.31799-.0728-2.58906-.0937-2.8246-.0464-.56449.11316-4.658381 5.59922-4.658381 6.2425 0 .22397 14.407891.31295 14.507401.0896.0481-.10814-.97343-1.53689-2.27024-3.175zm224.564915 2.95108c0-.26892-2.47689-3.58513-3.96874-5.31355-.63916-.74049-5.2074-1.31318-6.05521-.75909-.36734.24009-4.52813 5.86465-4.52813 6.12114 0 .13748 3.10386.23976 7.27604.23976 5.07281 0 7.27604-.0873 7.27604-.28826zm-102.76247-2.28531c-5.59713-5.59716-20.44861-6.80781-28.04945-2.28656-3.78495 2.25145-3.79807 2.18356.43849 2.27277 6.91084.14552 27.75312.15595 27.61096.0138zm-124.574475-9.47243c.22337-1.60912-2.39661-12.26324-2.69742-10.96901-1.72471 7.42055-2.26387 11.28471-1.59256 11.41407 1.68833.32533 4.21949.0627 4.28998-.44506zm222.114895-1.05087c-.0547-1.38637-1.46508-9.36596-1.84716-10.45104-.19026-.54034-.41471.30624-1.5081 5.68854-1.47286 7.25027-1.5989 6.51565 1.10265 6.42644l2.31529-.0764zm-109.17555.005c.0827-.21551-.11134-1.55496-.43116-2.97657-.36701-1.63126-.63439-3.92677-.72486-6.22276l-.14329-3.63799h-2.83202-2.832l-.16761 4.29948c-.0922 2.36471-.34907 5.23337-.57087 6.37479-.22177 1.14144-.33655 2.18323-.25506 2.3151.27305.4418 7.78405.29829 7.95687-.15203zm-219.5208653-11.67601c.66505-3.81904 3.1649-8.20806 6.60998-11.60526 2.08158-2.05265 2.07173-2.02102 1.321-4.24043-4.00453-11.83872-.8278-24.7443 7.33225-29.78749 1.06895-.66065 1.08448-.86163.21372-2.76531-.81657-1.78521-.99279-1.75314-2.33127.42431-6.9826 11.35931-12.28529 28.96424-13.38303 44.43162-.4086 5.75736-.3363 6.83665.23735 3.54256zm93.5102297-68.03475c.27984-1.92129.44348-3.70324.9657996-10.51719.29002-3.78354.60282-7.28497.6951-7.78096.45072-2.42244-9.8643996.51666-14.3764896 4.09631-2.6354697 2.09084-5.9770897 6.19886-6.5751397 8.08313-.2135.67269-1.0712.30325 6.9092997 2.97608 3.79437 1.27082 8.02109 2.71372 9.39271 3.20645 1.37161.49273 2.57267.90318 2.66902.912256.0964.008864.24021-.430376.3197-.976076zm-24.1924497-8.06979c.16444-.47294.94999-1.88752 1.74567-3.14349 1.6406-2.58968 1.64976-2.62168.88699-3.09803-.30783-.19225-3.46865-2.57237-7.02403-5.28917-19.85922-15.17513-32.24681-24.32243-32.57556-24.05459-.51804.42207-4.56994 5.92845-5.7913 7.87017-2.20247 3.5015-6.17233 10.96461-6.17233 11.60365 0 .26257 5.09492 2.16728 12.30313 4.59948 10.54451 3.55793 33.27978 11.37387 34.79271 11.96105 1.36319.52906 1.50685.4939 1.83472-.44907zm-37.02431-17.97798c-2.3502-1.59468-1.69772-5.03075 1.07076-5.63881 2.41239-.52985 4.31572 1.44364 3.83966 3.98122-.35348 1.88423-3.17348 2.83616-4.91042 1.65759zm69.2076203 13.74465c.84649-1.92816 3.12326-6.69341 5.05948-10.58946 4.16411-8.37899 4.02055-7.7029 1.60217-7.54498-5.304.34635-6.55606 2.75025-7.870771 15.11163-.82869 7.79159-.85528 7.7251 1.209121 3.02281zm30.5417-5.38274c3.9969-1.18696 5.52429-6.79227 3.74859-13.75683l-.61309-2.40467-2.56643-.44919c-6.44742-1.12846-11.42109-4.81016-14.08557-10.42669-.73988-1.55959-1.4346-3.0093265-1.54385-3.2216565-.10922-.21232-1.1412-.63641-2.29327-.94241-4.36274-1.15879-4.91448-2.13605-3.92417-6.95093 1.22322-5.947222 5.20086-11.633576 9.59199-13.71247l1.49794-.709166-1.98437-.483753c-2.09775-.511395-10.22009-2.079625-10.78177-2.081707-.18191-.000794-.33073.300598-.33073.669493 0 .368896-.41048 3.553817-.91218 7.077604s-1.39834 9.919229-1.99253 14.212089c-.59419 4.2928665-1.1455 8.2447465-1.22513 8.7819665-.29883 2.01584-2.30034 2.93826-4.08635 1.88324-.831021-.49089-1.457661-1.69361-1.213681-2.32941.0855-.22272.46468-2.75494.84269-5.6271365.378011-2.87221 1.100681-7.78204 1.605931-10.91074.78431-4.856761 1.95416-13.303084 1.95416-14.109037 0-.525166-11.7342006-.0019-16.2718706.72553-5.52292.885447-5.50628.881094-5.31103 1.389909.26489.690301.7224 3.091246 3.09208 16.226928.43316 2.4011 1.61388 9.2471865 2.62382 15.2135465 2.36564 13.97535 2.40007 14.17741 2.53683 14.89198.11256.58812.18793.60245 2.78201.52917l2.6663296-.0753.72958-2.17615c2.24213-6.68765 7.308921-10.0255 13.742551-9.05318 5.81914.87946 8.52397 3.30543 12.44629 11.16312 2.784 5.5773 3.29943 6.17573 5.77781 6.70842 1.99565.42893 1.86973.43082 3.49742-.0526zm-40.7675806-40.5682665c-1.65811-1.6581-.73413-5.047225 1.48977-5.464428 2.6405696-.495377 4.6505396 1.743681 3.8211796 4.256688-.66686 2.02061-3.7882596 2.73044-5.3109496 1.20774zm-13.7582897 39.7759165c1.03655-.87219 1.02327-1.39959-.0817-3.24389-1.85744-3.10031-7.61271-12.80347-10.61663-17.89925-1.71567-2.91042-4.5089-7.6133865-6.20718-10.4510465-1.69828-2.83765-3.85324-6.55503-4.7888-8.26085-2.03813-3.716105-1.24879-3.661804-6.11809-.42087-8.43733 5.61575-13.97996 10.70985-12.58242 11.5642.83411.5099065 17.00182 12.7072465 23.21719 17.5156465 10.22 7.9065 12.81726 9.91259 14.09767 10.88885 1.53994 1.17415 1.99563 1.2196 3.07994.30721zm-25.83308-24.10673c-1.6729-.32391-2.86151-2.69721-2.17766-4.348157 1.32779-3.2055595 6.45425-1.7757695 5.99192 1.671167-.19235 1.43402-1.89132 3.02323-3.02165 2.82642-.11381-.0198-.47049-.0871-.79261-.14943zm32.6014897 20.02868c1.44161-.61794 1.44234.24809-.007-7.67239-.49246-2.69213-1.56368-8.82385-2.38049-13.62604-.8168-4.8021765-2.0670597-11.9643165-2.7783397-15.9158565-.71128-3.951532-1.37422-7.821064-1.4732-8.598957-.099-.777891-.28892-1.552509-.42208-1.721377-.71162-.902462-17.97331 5.114626-18.39373 6.411701-.0506.15611 1.41546 2.775483 3.25791 5.820833 3.54815 5.86465 9.76951 16.4143165 13.72855 23.2797165 1.30969 2.27115 2.80448 4.80407 3.32176 5.62873s1.5854697 2.71977 2.3737697 4.21136 1.45653 2.71198 1.48495 2.71198c.0284 0 .60777-.23837 1.28742-.5297zm-14.1001997-31.6189265c-1.74218-.75694-2.11249-3.43719-.68129-4.93105 2.34361-2.446188 6.20186.0762 5.1219 3.34853-.56915 1.72455-2.51647 2.41853-4.44061 1.58252zm68.6379303 13.5465865c8.86923-4.50537 8.17366-20.5119205-1.0895-25.0721625-3.12547-1.538663-3.58172-1.44322-4.69432.981969-5.06267 11.035417-6.50129 13.273367-9.33958 14.528587-1.4296.63223-1.4296.63223-1.0333 1.75542 2.43152 6.8916265 10.38873 10.7361965 16.1567 7.8061865zm-20.59295-14.5556165c1.03865-.20229 1.73929-.18674 2.70188.06 1.66973.42794 1.48899.60924 3.31848-3.32848.86527-1.86237 2.1958-4.57099 2.95677-6.019158 1.57488-2.997123 1.57411-2.937327.0322-2.526421-4.02317 1.07215-8.14599 4.468227-9.96905 8.211829-1.31966 2.70983-1.71328 4.41639-.94303 4.08844.27527-.11719 1.13152-.33598 1.90275-.48618zm238.971695 192.8700965c-8.28614-1.80004-11.46014-9.21072-7.49552-17.50065 2.87158-6.0044 3.57627-8.79644 4.86659-19.2813.28866-2.34569.70022-5.2769.91459-6.51383.66484-3.8364.53612-5.38906-1.03087-12.43541-.21035-.94589-.56682-2.55323-.79214-3.57188-.45871-2.07359-1.81382-6.85404-3.07509-10.84791-.88802-2.81198-3.65583-12.04187-4.89937-16.33803-2.15567-7.44745.19087 7.71264 2.67221 17.26407.35915 1.38244 1.07223 4.41854 1.58464 6.74687.51242 2.32833 1.22082 5.54622 1.57422 7.1509 1.07752 4.89243 1.27508 6.89678 1.29548 13.14262.022 6.73713.0672 6.575-1.88301 6.75155-2.71098.24543-3.05276-.49903-3.12941-6.81627-.0871-7.17717-.47853-9.68304-3.69697-23.66838-6.63464-28.82972-7.03117-44.26062-1.55832-60.64075 12.81266-38.34801 61.13912-34.36675 64.69631 5.32985.37401 4.17386.009 3.75238 3.81164 4.40284 9.77566 1.67222 17.03057 7.04592 21.55177 15.96337 9.95756 19.63989.26632 45.67817-24.43036 65.63927-7.07435 5.71785-9.20721 7.279-17.37431 12.71727-11.37975 7.57748-16.31042 11.46839-20.08269 15.8477-5.6927 6.60876-8.15788 7.8228-13.51939 6.6581zm5.80726-5.97241c3.82516-4.82965 6.11669-15.46294 6.76042-31.37024.22196-5.48503.61627-9.69865 1.46079-15.61042.7221-5.05481 1.09045-7.05138 2.90444-15.74271.4404-2.11005.91974-4.96755 1.06524-6.35.44238-4.20345.54017-4.75419 1.57347-8.86354 2.44589-9.72699 5.76927-15.83826 12.2823-22.58561 3.64247-3.7735-.78589-.67672-5.22277 3.65232-6.50702 6.34891-9.0308 11.28299-11.71434 22.90204-.81672 3.53609-1.48323 7.92176-2.19147 14.41979-.50773 4.65844-.62486 5.9023-.95903 10.18646-.0795 1.01865-.19629 2.50693-.25966 3.30729-.0634.80037-.18225 2.82443-.26422 4.49792-.23341 4.76605-.64669 10.27562-.92286 12.30312-.13875 1.01865-.37412 3.23133-.52306 4.91707-.79248 8.9697-4.25939 18.86723-8.54183 24.38554l-.76999.99219h2.24896c2.24895 0 2.24895 0 3.07361-1.04122zm-7.16733-6.21167c3.73296-5.41648 5.71699-12.92453 6.78807-25.68774.0977-1.16417.22014-2.47385.27208-2.91042.0519-.43656.34234-4.24656.64531-8.46666.30301-4.22011.66802-8.92307.81119-10.45104.36248-3.86898.54351-6.79642.40082-6.48229-.27054.59566-1.47267 6.54555-1.87098 9.26041-.23487 1.60073-.78097 5.29167-1.21356 8.20208-.43262 2.91042-1.13747 7.73245-1.56633 10.71563-.42887 2.98318-.90996 6.31693-1.06908 7.40833-1.09122 7.48454-2.64345 12.06947-5.95664 17.59479-.74579 1.24376-.78084 1.6722-.24228 2.96114.49239 1.17846.92387.87019 3.0014-2.14423zm18.84717-5.69728c.66839-.51726 3.82355-2.6907 7.01146-4.82991 17.79937-11.9439 18.53358-12.46836 23.98056-17.12921 4.03424-3.45199 4.19904-3.8318.4621-1.06497-2.75866 2.0425-6.57411 4.39833-10.70894 6.61215-5.33786 2.85792-15.80966 9.11167-18.23026 10.8871-1.17845.86434-2.42485 1.77448-2.76976 2.02255-.44577.32057-.72173.91004-.95422 2.03827-.17992.873-.41648 1.86886-.5257 2.21303-.23194.7307-.10838.67736 1.73476-.74901zm5.66344-13.64877c2.61966-1.62917 6.37034-3.826 8.33487-4.88185 3.70485-1.9912 4.29297-2.33201 10.45104-6.05634 21.54174-13.02816 28.71081-20.98614 31.61229-35.091 3.85109-18.72105-9.78572-36.90807-24.88118-33.18335-8.06921 1.99103-15.709 8.48946-20.12098 17.11497-.87318 1.70709-1.37282 2.8104-1.11033 2.45182 4.59661-6.27918 8.56875-9.83388 14.28449-12.78327 18.82097-9.71182 36.6573 10.24441 27.81263 31.11826-3.31291 7.81856-7.47697 12.13127-21.11463 21.86828-1.0914.77925-2.9964 2.27042-4.23333 3.31372-6.31785 5.32884-18.95689 14.37222-25.7797 18.44567-.66429.39658-1.2078.84727-1.2078 1.0015 0 .36814.23924.23479 5.95263-3.31841zm8.59945-12.77646c25.61246-18.93829 35.44957-39.34616 24.57127-50.9751-3.00746-3.21499-9.12931-4.83902-9.65382-2.561-2.46967 10.72564-9.84176 24.562-21.16847 39.73025-1.90166 2.54661-4.25915 5.91436-5.2389 7.48387-1.94776 3.12031-1.81012 2.57881-2.26719 8.92029-.14158 1.96453-.33605 4.37552-.43217 5.35776l-.17473 1.78589 5.66065-3.74605c3.11335-2.06037 7.02987-4.75851 8.70336-5.99591zm13.54201-19.22981c-.93969-.7907-1.04891-.7983-1.90034-.13229-1.33697 1.04579-2.38125.40166-2.38125-1.46873 0-1.08818-.0687-1.20142-1.02571-1.68963-1.64005-.83669-1.43052-1.97954.56647-3.0897.29731-.16528.50771-.67048.57941-1.39122.19087-1.91868 1.41542-2.49479 2.87031-1.35038.68056.53535.68056.53535 1.55702.001 1.76342-1.07511 2.68526-.53471 2.55923 1.50026-.075 1.21011-.0366 1.29062.80328 1.68857 1.69473.80297 1.62293 2.05229-.16081 2.79758-.93285.38977-.93838.40173-.78497 1.69707.14668 1.23836.11554 1.3247-.6136 1.70175-1.01766.52626-1.14961.50941-2.06904-.26426zm3.41167-22.90681c-2.17252-2.17253.37889-5.25151 3.15995-3.81337 2.32828 1.204 1.37578 4.62747-1.28752 4.62747-.82902 0-1.2347-.17639-1.87243-.8141zm-27.80159 26.51607c0-.12496 1.36649-2.05973 3.03665-4.29949 7.98335-10.706 19.16141-32.88435 15.9536-31.65339-.19095.0733-1.07976 1.5465-1.97514 3.27384-1.80922 3.49026-4.04267 7.68602-5.24579 9.8547-1.4842 2.67536-4.27161 6.79005-6.92673 10.22502-2.65893 3.43986-3.52428 5.16815-4.1701 8.3286-.10408.50932-.41703 1.68272-.69545 2.60755-.59111 1.96355-.58174 1.890723-.24162 1.890723.14552 0 .26458-.102593.26458-.227553zm-19.34422-3.10901c.15534-.54166.083-1.31971-.23193-2.49571-.2517-.93979-.7625-2.8398-1.13509-4.22225-1.00981-3.74665-2.46822-10.46563-3.24482-14.94896-.69456-4.00964-1.49831-7.83699-3.16712-15.08125-1.41356-6.13627-2.0112-10.55802-1.96601-14.54577.41886-36.96144 43.23926-41.5877 45.36432-4.9011.18997 3.27925.31752 3.64053 1.13157 3.20486 1.0166-.54407 1.10138-7.16643.16888-13.19339-4.64563-30.02591-44.35858-22.6839-49.73462 9.19478-.84844 5.03114-.83823 9.3014.0371 15.47812.47196 3.33037 3.37727 14.4386 5.77831 22.09271.34237 1.09141 1.12112 3.59172 1.73059 5.55625.60944 1.96453 1.21271 3.86953 1.34056 4.23333.24998.7112 2.17517 7.28805 2.51712 8.59896.11387.43656.22259.85328.24161.92604.39352 1.50551.75819 1.53774 1.16957.10338zm62.4337-9.62838c4.10832-7.74898 3.66816-16.78145-1.13265-23.2429-1.38793-1.86802-1.98303-2.06394-.72787-.23963 4.88212 7.09589 4.96993 15.76766.26064 25.73149-.51824 1.09646.83399-.80438 1.59988-2.24896zm-58.69061-3.37343c5.69997-17.36671 13.24978-28.50777 24.33092-35.90455 3.02969-2.02236 3.56063-5.55658 1.75083-11.65431-6.12733-20.64435-28.67517-11.50357-31.00115 12.56771-.0914.94589-.2155 2.07698-.2758 2.51354-.33954 2.45869-.0927 11.06301.41754 14.55209.98433 6.73143 1.53802 10.00084 2.49714 14.74482.52157 2.57986.94832 4.93134.94832 5.22552 0 1.20599.53454.38551 1.3322-2.04482zm2.38342-27.23093c-2.09539-1.87224-.15303-5.19691 2.52063-4.31451 2.76077.91113 2.39186 4.62424-.4917 4.94926-1.01695.11463-1.2836.0312-2.02893-.63475zm8.13245-14.12696c-.28716-.16736-.52047-.75819-.63231-1.60126-.1502-1.13235-.31189-1.42346-1.06047-1.90954-1.45365-.94386-1.4464-1.7067.0228-2.4039.98139-.46571 1.19893-.8542 1.19893-2.14109 0-1.61845 1.26942-2.18496 2.73328-1.21979.73536.48483.76716.48378 1.75599-.0579 1.56112-.85511 2.33521-.39051 2.44178 1.46553.0749 1.30402.14259 1.42935.98671 1.82667 1.5353.72265 1.35866 2.88298-.23574 2.88298-.58478 0-.80285.50641-.80285 1.86441 0 1.57712-1.38364 2.09563-2.74164 1.02743-.69636-.54775-.69636-.54775-1.46561 0-.8392.59756-1.49632.67711-2.20093.26642zm29.22653-.0494c.70321-.54099-.055-7.84155-1.09972-10.58949-.47262-1.24308-.60457-.79601-.39227 1.32908.21389 2.141.22148 2.56974.11827 6.68073-.0347 1.38245-.0519 2.60284-.0382 2.71198.0394.31489.94041.23047 1.41195-.1323zm-47.42333-3.71978c.003-.77925 2.49335-5.72517 4.05815-8.06017 3.67641-5.48598 6.76561-8.07813 11.4187-9.58144 2.1716-.70159 2.76654-1.1076 1.30009-.88721-6.193.93075-12.41664 5.51276-14.85636 10.93767-1.61099 3.58214-2.95568 8.54522-2.18644 8.06979.14553-.0899.26517-.30532.26586-.47864zm-275.8786553 99.31368c-2.35334-1.43494-1.7553-5.04717.97083-5.86393 3.3389297-1.00037 5.8957397 3.17518 3.4449497 5.62599-.95011.95009-3.0612297 1.06386-4.4157797.23794zm217.2575953-20.42001c-2.21837-.60122-2.00152 5.4138-1.97612-54.81056l.006-15.02468 2.5014.0757 2.50142.0757.16021 33.92071c.11485 24.31593.0783 34.07374-.12901 34.46112-.4613.86193-2.10728 1.5613-3.06422 1.30196zm-235.7422853-4.57158c-1.22373-.53303-2.23584-1.88232-2.23584-2.98074 0-3.29192 4.77677-4.78579 6.39722-2.00062 1.81355 3.11703-.92245 6.39214-4.16138 4.98136zm222.2355453-2.6452-.90069-.90069.0673-30.78279.0673-30.7828.92604.0377c.50933.0207 1.61065.0503 2.4474.0658l1.52135.0281v30.45324c0 33.24321.0669 31.77594-1.48039 32.48092-1.0798.49199-1.69635.35243-2.64822-.59944zm-18.68834-10.89054c-1.09019-.59153-1.06701-.0222-1.08625-26.67008l-.018-24.90639 2.56786-.0757 2.56789-.0757v25.08612c0 23.20187-.0339 25.13526-.45088 25.74031-.9485 1.37621-2.14881 1.67839-3.58065.90149zm-218.6686253-12.71557c-2.17821-1.07407-2.31312-4.38649-.23413-5.74869 2.08529-1.36634 5.18221.34414 5.18221 2.86223 0 2.5982-2.53439 4.07664-4.94808 2.88646zm275.5548653-21.24419c-.86408-.77183-.86408-.77183-.86408-9.19427v-8.42244l2.57969-.0255 2.57969-.0255v8.53482c0 10.07105-.95999 12.11222-4.2953 9.13294zm-61.74383-25.52687c-1.87624-1.87624-.91361-4.12838 1.76458-4.12838h1.5683l.0159-3.24115c.0257-5.28024.42015-6.45886 2.33648-6.98122 2.20435-.60087 2.93423.73995 3.04821 5.59976.0511 2.17863.10708 4.05045.12435 4.15959.0172.10914 3.12706.19843 6.9106.19843h6.87917v-7.26666c0-9.47672-.4931-12.39798-2.55844-15.15705-2.07881-2.777-5.73953-1.77574-7.10197 1.9425-1.30879 3.5718-5.33366 3.58866-5.19875.0218.29596-7.82489 9.83157-11.55077 15.64497-6.11302 3.27793 3.06612 4.02476 6.24789 4.17211 17.77505l.11248 8.7974h3.55012 3.55021l.0356-2.18281c.0196-1.20055.0617-4.26644.0936-6.81309.1525-12.17921 4.69664-19.00059 13.43078-20.16146 11.66836-1.55088 17.65495 5.8895 17.65908 21.94746l.002 7.2099h3.68493 3.68496l.0991-8.6651c.10779-9.42094.29033-10.66605 2.16249-14.75052 2.72426-5.94344 10.80879-7.84261 14.66909-3.44597 2.35468 2.68185-.40328 6.02944-3.389 4.11352-2.57535-1.65259-4.01815-1.56101-5.77202.36638-2.25996 2.48353-2.54235 4.35183-2.5632 16.95774l-.0175 10.58333-38.84874.067-38.84877.067zm60.68626-11.684c.11946-12.42085-2.42046-16.65376-9.99297-16.65376-8.14681 0-11.9688 8.1435-10.45525 22.27696l.17696 1.65233 3.35322.0739c1.84425.0406 6.38929.0672 10.10007.0589l6.74688-.015zm96.76225 8.77702c-.22728-.34687-.39452-.73382-.37166-.85989.148-.8156-.0682-1.94901-.37182-1.94901-1.48241 0-1.80007-1.92145-.45773-2.76882.94615-.59728 1.05114-.77591 1.12448-1.913.11417-1.77026 1.08632-2.3648 2.34511-1.43416.86846.64209 1.17091.60504 2.4344-.29825.96666-.69107 1.90365.24401 1.9953 1.99126.0723 1.37794.13341 1.51255.6866 1.51255 1.79252 0 1.788 2.3295-.006 2.92146-.90233.2978-.90435.30217-.73356 1.5897.24149 1.82038-1.53519 2.54152-2.89972 1.17699-.52586-.52586-.78746-.50034-1.36033.13268-.66887.7391-1.86807.68807-2.38541-.10151zm-153.34223-30.30522c-.774067-.77339-.774067-.77339-.774067-12.53202 0-13.24719-.097233-12.60519 2.079067-13.62837.9643-.45336.9643-.45336 1.15091-3.49468.51287-8.3585765 2.86981-18.2527415 5.70365-23.9433995 4.01783-8.068241 9.64814-14.348643 16.94892-18.905889 3.14791-1.964963 3.09459-1.892951 3.33928-4.509736.90419-9.668915 4.65881-16.395075 10.92189-19.565882.90541-.458374 1.72123-.954831 1.81293-1.103233.12795-.20701.85915-11.855516.89903-14.32203.0127-.790501-.53687-.518256-1.97453.977984-.7615.792554-1.70601 1.521688-2.09892 1.620295-1.4451.362699-4.32691-1.641334-3.93687-2.737736.27723-.77938 1.91527-2.664791 2.73672-3.150023 1.30771-.772486-1.82258-3.930751-4.33715-4.375907-3.92941-.695626-10.4901-6.84791944-10.4901-9.83710044 0-1.03466905.244-1.14811905 1.4682-.682677.80957.3078 3.34928.754657 9.77659 1.72018 6.5146.978633 6.38583.911413 8.31292 4.338918 1.46151 2.59941504 3.04628 1.747777 1.86357-1.001474-.59579-1.384975-.3845-3.304487.56113-5.097368 2.02779-3.844705 6.65032.541949 5.52299 5.241177-.75732 3.156873.98896 3.45103704 2.54061.427963 1.45155-2.828107 1.73254-2.948691 10.03837-4.308022 3.63802-.5954 7.1206-1.249228 7.73906-1.45295205.61846-.203726 1.13297-.28834 1.14334-.188031.0103.100306.071.60682405.13468 1.12559505.34946 2.845793-7.77852 10.03699044-11.34444 10.03699044-.28136 0-1.42227.88627-2.53537 1.969487-1.49939 1.459116-2.41712 2.11999-3.5415 2.550263-1.68455.644644-1.66648.615231-1.14533 1.864085.93411 2.23837.63913 5.281607-.82169 8.477361-.96244 2.105499-.96244 2.105499-.51773 4.007049.2446 1.04585.4432 2.112854.44132 2.371116-.003.260466.29387.582591.66416.723373 5.8126 2.209943 10.97245 10.034971 12.03671 18.253932.69652 5.379099.36778 4.685896 2.9404 6.200341 14.09004 8.294566 23.50796 26.339578 23.51336 45.0522405.00019.61273.14915 1.23081.33105 1.37351s.80698.67392 1.38906 1.18049l1.05833.92103.0779 11.75397c.0879 13.26306.058 13.42258-2.51579 13.42258-2.50809 0-2.57759-.30275-2.67732-11.65878-.0881-10.03705-.0881-10.03705-.66145-10.04054-9.17562-.0559-83.10219.0264-83.16836.0926-.0521.0521-.12285 4.58756-.15716 10.07877-.0624 9.98401-.0624 9.98401-.92647 10.75596-1.18081 1.05494-2.46605 1.05441-3.52189-.001zm68.13785-27.37396c-3.93766-23.8853075-36.04649-25.8276425-42.57717-2.57558-1.14615 4.08087-3.90051 3.58213 20.62946 3.73544 24.33158.15207 22.18272.26563 21.94771-1.15986zm-48.30079-.89066c1.12162-6.7498865 3.57743-11.5268865 8.3435-16.2295465 2.45946-2.426746 2.46404-2.43375 2.62916-4.013463.81545-7.801896 3.29515-17.101331 5.7557-21.585208 1.31376-2.39404 1.24692-2.464983-1.43971-1.528694-6.79669 2.368624-13.94163 7.407404-17.24901 12.164369-6.84776 9.849054-9.33066 17.056066-10.60063 30.7697525-.24435 2.6386-.65882 2.47331 6.20204 2.47331h6.01821zm65.90797 1.19063c-.007-20.1122525-11.63455-38.9305535-27.36427-44.2888585-2.24504-.764773-3.80928-.751282-2.55796.02207 1.6932 1.046462 6.74674 19.416514 6.32804 23.003007-.10428.893122.0408 1.105099 2.50846 3.664465 5.31735 5.51503 7.59618 9.85784 8.44563 16.0951065l.32197 2.3641h6.15924c6.1592 0 6.1592 0 6.15889-.85989zm-46.90108-23.6687525c3.46634-1.070419 11.31486-1.071282 15.26487-.0016 3.19443.865004 2.94834 1.284176 1.99962-3.405741-5.10535-25.238564-14.32764-24.990689-19.32781.519491-.28869 1.472917-.58965 2.886392-.66876 3.141054-.18897.608288 0 .590875 2.73208-.253127zm20.82507-27.010397c-2.12328-19.783604-23.10117-20.530375-25.9814-.924885-.32623 2.220698-.27916 2.2523 2.26007 1.516838 6.56932-1.902749 17.09095-1.774706 22.06096.268472 1.74731.718312 1.82547.677813 1.66037-.860425zm-33.14192 72.8207795c-1.47513-.62025-1.68048-1.45875-1.58695-6.47983.12425-6.67002-2.52994-5.93837 21.54238-5.93837h19.99168l.77202.86407c1.20185 1.34514 1.20584 9.62228.005 10.96593l-.76676.85814-19.57485.0349c-15.40341.0274-19.74705-.0375-20.38281-.30482zm-58.52134-41.3002105c-.99568-.394414-1.63893-1.385919-2.3646-3.644868-1.27225-3.960304-2.29635-6.572099-3.57611-9.120277l-1.21362-2.416451-1.57665 1.312104c-5.90706 4.915918-12.69527 5.017087-18.10213.269787-3.69337-3.24281 2.89023-9.482957 10.56124-10.010285l2.38125-.163695-1.29318-.924232c-.71125-.508328-2.01303-1.495129-2.89287-2.192891-.87982-.697761-2.53336-1.754407-3.67451-2.3481-3.23186-1.681398-3.96415-3.234936-2.36731-5.022122 2.45298-2.745364 13.85388 5.159777 19.54083 13.549214 5.55244 8.190984 9.19686 18.237002 7.30298 20.130894-.52983.529836-2.04108.851967-2.72532.580922zm7.27604-6.012103c-3.04593-1.439974-4.00846-4.091882-3.75478-10.345015.37558-9.257051 3.6158-14.159823 9.35816-14.159823 1.40808 0 1.40808 0 1.40808-.878908 0-4.90701 3.96732-6.156902 6.58662-2.07509l.83997 1.308997 1.77681-.627126c3.81741-1.347357 4.52001-.855404 4.75044 3.326122.14655 2.659679.14655 2.659679 1.36459 3.198278 3.64238 1.610611 3.62005 4.284088-.0519 6.206572-1.41566.741195-1.41566.741195-1.29882 2.759508.28057 4.846614-3.02993 7.997169-10.83834 10.314742-5.89549 1.749816-8.05693 1.956932-10.14087.971743zm-46.10692-5.484815c-10.177622-1.69-18.160685-10.141344-15.209415-16.101573.5288-1.067917.54401-1.205857.15692-1.42249-4.69188-2.625709-3.94477-6.267402 1.52348-7.426103.64949-.137623.69757-.258482.83716-2.104191.30385-4.017539 2.010757-4.843828 5.213485-2.523781 1.370013.992433 1.551544.973674 2.783153-.287608 3.306607-3.386277 7.064827-.468865 5.426097 4.212156-.0948.270878.17913.434356.96737.577279 4.89096.886814 7.09621 4.171521 7.085737 10.554205-.017537 10.584362-2.981967 15.485536-8.783987 14.522106zm-54.791875-3.813633c-1.91429-1.610767-.76898-4.229909 4.9884-11.407767 9.87912-12.31656 29.6191-24.171539 40.248523-24.171539 3.546184 0 3.023764 4.455676-.620289 5.290558-1.701324.389789-6.762404 1.917814-9.466794 2.858183-10.49787 3.650334-21.77981 12.917503-29.38327 24.135884-2.87322 4.239244-3.9279 4.841819-5.76657 3.294681zm132.837655-8.078531c-2.06226-1.051184-3.26466-3.603206-4.15374-8.816162-1.18351-6.939441.44725-11.249858 4.75863-12.577958.58209-.179308 1.196-.368483 1.36425-.420386.22688-.06999.2159-.355672-.0425-1.105636-1.32257-3.8388 1.68162-6.042302 4.76457-3.494698 1.25793 1.039497 1.25793 1.039497 2.0837.487063 3.5357-2.365319 4.86375-1.941618 5.54884 1.770288.30668 1.661578.40031 1.833628 1.11318 2.045424 1.38843.412507 3.27393 1.302097 3.80145 1.793555.82463.768266-.12316 3.251195-1.56654 4.103815-.90744.53604-.92607.631359-.40585 2.075378 2.41766 6.710849-10.72491 17.473438-17.26602 14.139317zm-41.67417-4.942384c-7.42659-4.109622-9.94281-14.19338-4.8863-19.581829 1.17911-1.256514 4.14779.05708 7.39111 3.270441 6.3356 6.277128 4.22304 20.034345-2.50481 16.311388zm23.15474-11.466328c-6.51875-1.751176-8.9952-3.915417-8.72947-7.62895.12856-1.796894.12856-1.796894-.7515-2.115127-2.59276-.937548-2.26269-5.316736.40071-5.316736.61751 0 .61354.01677.55684-2.353506-.0537-2.243362.52787-2.56699 3.28676-1.829104 1.17891.315309 1.17891.315309 2.506-.926042 2.18398-2.042853 4.26019-.971044 4.26019 2.199249 0 .707564.0872.771723 1.25677.924801 4.18233.547391 5.65537 3.684172 5.52913 11.774185-.0821 5.263565-2.54119 6.822403-8.31543 5.27123zm-42.82844-.103256c-10.08111-1.844807-16.88854-8.470064-14.81453-14.418058.22638-.649163.38709-1.184945.35714-1.190625-4.587402-.870741-5.087967-5.571533-.77568-7.284368 1.57866-.627044 1.57866-.627044 1.44452-2.298298-.33325-4.151545 2.16077-5.587413 5.40586-3.112273 1.03523.789628 1.19589.796507 1.83351.07852 1.01716-1.145355 3.08208-2.607456 3.68249-2.607456 2.03933 0 4.2598 4.562494 2.88806 5.934226-.37798.377976-.29816.415774.87802.415774 5.66428 0 8.269 4.03415 8.269 12.806974 0 9.394441-2.7182 12.855945-9.16839 11.675584zm56.92568-14.269447c-2.71047-.666327-3.04115-1.199176-2.50563-4.037378 1.45703-7.721994 9.40022-12.394401 17.3223-10.189456 1.90211.529416 2.06727 1.098696 1.30976 4.514276-1.61467 7.280381-8.68883 11.540982-16.12643 9.712558zm-40.65913-1.294252c-6.48814-4.933751-5.22753-20.45809444 1.80695-22.25260644 1.27031-.324054 1.27031-.324054 1.27987-1.895674.0251-4.153545 2.67089-5.58859705 5.28097-2.864551l1.13959 1.189342 2.08214-1.072123c3.05014-1.570588 4.59565-.599903 4.59565 2.886413 0 .854451.12118 1.381631.33073 1.438712 3.52856.961252 4.69636 1.779775 4.69636 3.29176044 0 1.112367-1.14779 2.562106-2.4573 3.103719-1.15739.4787-1.15739.4787-.63404 1.816904 1.96149 5.015545-.63577 9.055701-8.81491 13.712039-3.14429 1.790023-7.41201 2.086309-9.30601.646065zm-45.198155.428916c-5.50651-.875453-9.56377-5.022855-10.89703-11.139148-.86513-3.968634-.53768-4.294042 4.32086-4.294042 6.40707 0 11.250559 3.259455 13.202761 8.884901.530357 1.528217.858361 5.676463.478949 6.05744-.458841.460763-5.224198.789955-7.10554.490849zm75.474325-8.884753c-4.5678-4.735216-2.96519-14.52545344 2.87181-17.54388344 3.56402-1.843024 7.30771 8.07547844 4.8111 12.74644044-2.22927 4.170804-6.01006 6.531633-7.68291 4.797443z"/></svg>